<mxfile host="app.diagrams.net" modified="2024-08-14T13:33:41.028Z" agent="Mozilla/5.0 (Windows NT 10.0; Win64; x64) AppleWebKit/537.36 (KHTML, like Gecko) Chrome/127.0.0.0 Safari/537.36" etag="yBjis0Dm99sODmzaOG41" version="24.5.4" type="google">
  <diagram name="Trang-1" id="uCLkT5vmuQ8ilvkbooFs">
    <mxGraphModel grid="1" page="1" gridSize="10" guides="1" tooltips="1" connect="1" arrows="1" fold="1" pageScale="1" pageWidth="827" pageHeight="1169" math="0" shadow="0">
      <root>
        <mxCell id="0" />
        <mxCell id="1" parent="0" />
        <mxCell id="hjtCVPgnJs4UMlXbe-IT-1" value="Material App" style="rounded=1;whiteSpace=wrap;html=1;" vertex="1" parent="1">
          <mxGeometry x="320" y="80" width="120" height="60" as="geometry" />
        </mxCell>
        <mxCell id="hjtCVPgnJs4UMlXbe-IT-2" value="Color" style="rounded=1;whiteSpace=wrap;html=1;" vertex="1" parent="1">
          <mxGeometry x="100" y="350" width="120" height="60" as="geometry" />
        </mxCell>
        <mxCell id="hjtCVPgnJs4UMlXbe-IT-7" style="edgeStyle=orthogonalEdgeStyle;rounded=0;orthogonalLoop=1;jettySize=auto;html=1;entryX=0.5;entryY=0;entryDx=0;entryDy=0;" edge="1" parent="1" source="hjtCVPgnJs4UMlXbe-IT-3" target="hjtCVPgnJs4UMlXbe-IT-6">
          <mxGeometry relative="1" as="geometry" />
        </mxCell>
        <mxCell id="hjtCVPgnJs4UMlXbe-IT-9" value="" style="edgeStyle=orthogonalEdgeStyle;rounded=0;orthogonalLoop=1;jettySize=auto;html=1;entryX=0.5;entryY=0;entryDx=0;entryDy=0;" edge="1" parent="1" source="hjtCVPgnJs4UMlXbe-IT-3" target="hjtCVPgnJs4UMlXbe-IT-10">
          <mxGeometry relative="1" as="geometry">
            <mxPoint x="520" y="240" as="targetPoint" />
          </mxGeometry>
        </mxCell>
        <mxCell id="hjtCVPgnJs4UMlXbe-IT-3" value="Scaffold" style="rounded=1;whiteSpace=wrap;html=1;" vertex="1" parent="1">
          <mxGeometry x="320" y="210" width="120" height="60" as="geometry" />
        </mxCell>
        <mxCell id="hjtCVPgnJs4UMlXbe-IT-4" value="" style="endArrow=classic;html=1;rounded=0;exitX=0.5;exitY=1;exitDx=0;exitDy=0;entryX=0.5;entryY=0;entryDx=0;entryDy=0;" edge="1" parent="1" source="hjtCVPgnJs4UMlXbe-IT-1" target="hjtCVPgnJs4UMlXbe-IT-3">
          <mxGeometry width="50" height="50" relative="1" as="geometry">
            <mxPoint x="390" y="280" as="sourcePoint" />
            <mxPoint x="440" y="230" as="targetPoint" />
          </mxGeometry>
        </mxCell>
        <mxCell id="hjtCVPgnJs4UMlXbe-IT-18" value="" style="edgeStyle=orthogonalEdgeStyle;rounded=0;orthogonalLoop=1;jettySize=auto;html=1;" edge="1" parent="1" source="hjtCVPgnJs4UMlXbe-IT-6" target="hjtCVPgnJs4UMlXbe-IT-17">
          <mxGeometry relative="1" as="geometry" />
        </mxCell>
        <mxCell id="hjtCVPgnJs4UMlXbe-IT-6" value="AppBar" style="rounded=1;whiteSpace=wrap;html=1;" vertex="1" parent="1">
          <mxGeometry x="320" y="350" width="120" height="60" as="geometry" />
        </mxCell>
        <mxCell id="hjtCVPgnJs4UMlXbe-IT-14" value="" style="edgeStyle=orthogonalEdgeStyle;rounded=0;orthogonalLoop=1;jettySize=auto;html=1;" edge="1" parent="1" source="hjtCVPgnJs4UMlXbe-IT-10" target="hjtCVPgnJs4UMlXbe-IT-13">
          <mxGeometry relative="1" as="geometry" />
        </mxCell>
        <mxCell id="hjtCVPgnJs4UMlXbe-IT-10" value="Center" style="rounded=1;whiteSpace=wrap;html=1;" vertex="1" parent="1">
          <mxGeometry x="530" y="350" width="120" height="60" as="geometry" />
        </mxCell>
        <mxCell id="hjtCVPgnJs4UMlXbe-IT-12" value="" style="endArrow=classic;html=1;rounded=0;exitX=0;exitY=0.5;exitDx=0;exitDy=0;entryX=0.5;entryY=0;entryDx=0;entryDy=0;edgeStyle=orthogonalEdgeStyle;" edge="1" parent="1" source="hjtCVPgnJs4UMlXbe-IT-3" target="hjtCVPgnJs4UMlXbe-IT-2">
          <mxGeometry width="50" height="50" relative="1" as="geometry">
            <mxPoint x="390" y="280" as="sourcePoint" />
            <mxPoint x="440" y="230" as="targetPoint" />
          </mxGeometry>
        </mxCell>
        <mxCell id="hjtCVPgnJs4UMlXbe-IT-16" value="" style="edgeStyle=orthogonalEdgeStyle;rounded=0;orthogonalLoop=1;jettySize=auto;html=1;" edge="1" parent="1" source="hjtCVPgnJs4UMlXbe-IT-13" target="hjtCVPgnJs4UMlXbe-IT-15">
          <mxGeometry relative="1" as="geometry" />
        </mxCell>
        <mxCell id="hjtCVPgnJs4UMlXbe-IT-13" value="Image" style="rounded=1;whiteSpace=wrap;html=1;" vertex="1" parent="1">
          <mxGeometry x="530" y="490" width="120" height="60" as="geometry" />
        </mxCell>
        <mxCell id="hjtCVPgnJs4UMlXbe-IT-15" value="NetworkImage" style="rounded=1;whiteSpace=wrap;html=1;" vertex="1" parent="1">
          <mxGeometry x="530" y="630" width="120" height="60" as="geometry" />
        </mxCell>
        <mxCell id="hjtCVPgnJs4UMlXbe-IT-17" value="Text" style="rounded=1;whiteSpace=wrap;html=1;" vertex="1" parent="1">
          <mxGeometry x="390" y="490" width="120" height="60" as="geometry" />
        </mxCell>
        <mxCell id="hjtCVPgnJs4UMlXbe-IT-21" value="Color" style="rounded=1;whiteSpace=wrap;html=1;" vertex="1" parent="1">
          <mxGeometry x="250" y="490" width="120" height="60" as="geometry" />
        </mxCell>
        <mxCell id="hjtCVPgnJs4UMlXbe-IT-24" value="" style="endArrow=classic;html=1;rounded=0;exitX=0.5;exitY=1;exitDx=0;exitDy=0;entryX=0.5;entryY=0;entryDx=0;entryDy=0;edgeStyle=orthogonalEdgeStyle;" edge="1" parent="1" source="hjtCVPgnJs4UMlXbe-IT-6" target="hjtCVPgnJs4UMlXbe-IT-21">
          <mxGeometry width="50" height="50" relative="1" as="geometry">
            <mxPoint x="630" y="440" as="sourcePoint" />
            <mxPoint x="680" y="390" as="targetPoint" />
          </mxGeometry>
        </mxCell>
      </root>
    </mxGraphModel>
  </diagram>
</mxfile>
